<svg id="Calque_1" data-name="Calque 1" xmlns="http://www.w3.org/2000/svg" viewBox="0 0 311.02 112.01"><defs><style>.cls-1{fill:#ecf0f1;}.cls-2{isolation:isolate;font-size:54.08px;fill:#e6e6e6;font-family:Verdana-Bold, Verdana;font-weight:700;}.cls-3{fill:#620c9b;}</style></defs><title>Logo StreamOn</title><g id="Calque_1-2" data-name="Calque 1"><path class="cls-1" d="M316.19,228.31H257.86A26.84,26.84,0,0,1,231,201.47V143.14a26.84,26.84,0,0,1,26.84-26.84h58.33A26.84,26.84,0,0,1,343,143.14v58.33A26.84,26.84,0,0,1,316.19,228.31Z" transform="translate(-231.02 -116.3)"/><text class="cls-2" transform="translate(119.01 77.88) scale(0.63 1)">StreamOn</text><path class="cls-3" d="M258,138.57V202.2c0,3.38,4.37,5.41,7.65,3.55l55.14-31.37a3.94,3.94,0,0,0,.05-7.06l-55.14-32.26C262.46,133.14,258,135.16,258,138.57Z" transform="translate(-231.02 -116.3)"/></g><g id="Calque_4" data-name="Calque 4"><path class="cls-1" d="M249,184l28-16,43-18,4,5a230.87,230.87,0,0,0-75,36Z" transform="translate(-231.02 -116.3)"/><polygon class="cls-1" points="22.98 75.7 47.98 60.7 24.98 84.7 22.98 75.7"/><polygon class="cls-1" points="38.98 9.7 32.94 21.78 22.98 41.7 45.98 9.7 38.98 9.7"/><polygon class="cls-1" points="49.98 12.7 33.98 48.7 81.98 23.7 70.98 19.7 45.98 37.7 56.98 10.7 49.98 12.7"/></g></svg>